# xmcd CD database file
#
# Track frame offsets:
#	150
#	25670
#	58369
#	76006
#	91183
#	96709
#	101884
#	112540
#	146688
#	187977
#	205486
#
# Disc length: 2865 seconds
#
# Revision: 0
# Processed by: cddbd v1.5.2PL0 Copyright (c) Steve Scherf et al.
# Submitted via: CDex 1.51
#
DISCID=900b2f0b
DTITLE=Monokel - Machste Blues, biste Könich
DYEAR=2000
DGENRE=Blues
TTITLE0=The Stake
TTITLE1=Intro-Irish Folk
TTITLE2=Fool for your stocking
TTITLE3=Excerpt (Moldau)
TTITLE4=Albatross-Excerpt (Fool fpr your stocking)
TTITLE5=Der 3. Mann
TTITLE6=Singing in the Night
TTITLE7=Und ich schrei...
TTITLE8=Hoochi coochi man
TTITLE9=It's all over now
TTITLE10=Good bye Jonny
EXTD=YEAR: 2000
EXTT0=
EXTT1=
EXTT2=
EXTT3=
EXTT4=
EXTT5=
EXTT6=
EXTT7=
EXTT8=
EXTT9=
EXTT10=
PLAYORDER=
